# xmcd
# 
# Track frame offsets:
#     150
#     15470
#     31693
#     50448
#     70498
#     87858
#     106818
#     123459
#     144527
#     163640
#     182683
#     201681
# 
# Disc length: 2880
# 
# Revision: 2
# Processed by: cddbd v1.5.2PL0 Copyright (c) Steve Scherf et al.
# Submitted via: fre:ac v1.0.31
# 
DISCID=a20b3e0c
DTITLE=Whitney Houston - I Look To You
DYEAR=2009
DGENRE=R&B
TTITLE0=Million Dollar Bill
TTITLE1=Nothin' But Love
TTITLE2=Call You Tonight
TTITLE3=I Look To You
TTITLE4=Like I Never Left Feat. Akon
TTITLE5=A Song For You
TTITLE6=I Didn't Know My Own Strength
TTITLE7=Worth It
TTITLE8=For The Lovers
TTITLE9=I Got You
TTITLE10=Salute
TTITLE11=I Didn't Know My Own Strength (Daddy's Groove Magic Island Radio Mix)
EXTD=
EXTT0=
EXTT1=
EXTT2=
EXTT3=
EXTT4=
EXTT5=
EXTT6=
EXTT7=
EXTT8=
EXTT9=
EXTT10=
EXTT11=
PLAYORDER=
